<svg width="213" height="175" viewBox="0 0 213 175" fill="none" xmlns="http://www.w3.org/2000/svg">
<g clip-path="url(#clip0_226_265)">
<path fill-rule="evenodd" clip-rule="evenodd" d="M83.2048 22.204C77.1444 25.0893 73.2303 28.4764 70.8313 32.2399C63.7608 43.6556 73.4828 70.8778 88.0027 87.0607C105.174 106.254 117.295 101.613 130.173 81.6664C135.35 73.5123 139.391 64.2291 141.663 55.0714C144.44 44.0319 143.305 32.9925 134.339 25.2147C128.658 20.3222 119.063 16.8097 103.028 17.5625C96.0833 17.9387 89.5178 19.1932 83.2048 22.204Z" fill="#ED2020"/>
<path fill-rule="evenodd" clip-rule="evenodd" d="M57.0693 20.0716L81.3112 10.1613V1.50538H90.2757V6.5233L106.311 0L155.552 20.0716V30.3584L106.311 10.2867L57.0693 30.3584V20.0716Z" fill="#5C9F38"/>
<path fill-rule="evenodd" clip-rule="evenodd" d="M111.235 24.7127C111.992 24.7127 112.623 26.093 112.623 27.7243C112.623 29.3556 111.992 30.736 111.235 30.736C110.477 30.736 109.846 29.3556 109.846 27.7243C109.846 26.093 110.477 24.7127 111.235 24.7127Z" fill="black"/>
<path fill-rule="evenodd" clip-rule="evenodd" d="M121.841 28.8528C122.598 28.8528 123.23 30.2331 123.23 31.8643C123.23 33.4957 122.598 34.876 121.841 34.876C121.083 34.876 120.452 33.4957 120.452 31.8643C120.452 30.2331 121.083 28.8528 121.841 28.8528Z" fill="black"/>
<path fill-rule="evenodd" clip-rule="evenodd" d="M129.922 34.6235C130.679 34.6235 131.311 36.0038 131.311 37.6352C131.311 39.2665 130.679 40.6468 129.922 40.6468C129.164 40.6468 128.533 39.2665 128.533 37.6352C128.533 36.0038 129.164 34.6235 129.922 34.6235Z" fill="black"/>
<path fill-rule="evenodd" clip-rule="evenodd" d="M136.234 42.9038C136.992 42.9038 137.623 44.2841 137.623 45.9155C137.623 47.5468 136.992 48.9271 136.234 48.9271C135.476 48.9271 134.845 47.5468 134.845 45.9155C134.719 44.2841 135.476 42.9038 136.234 42.9038Z" fill="black"/>
<path fill-rule="evenodd" clip-rule="evenodd" d="M115.779 39.7672C116.537 39.7672 117.168 41.1475 117.168 42.7788C117.168 44.4101 116.537 45.7905 115.779 45.7905C115.022 45.7905 114.391 44.4101 114.391 42.7788C114.391 41.1475 115.022 39.7672 115.779 39.7672Z" fill="black"/>
<path fill-rule="evenodd" clip-rule="evenodd" d="M102.271 33.3697C103.028 33.3697 103.66 34.75 103.66 36.3813C103.66 38.0127 103.028 39.393 102.271 39.393C101.513 39.393 100.882 38.0127 100.882 36.3813C100.882 34.75 101.513 33.3697 102.271 33.3697Z" fill="black"/>
<path fill-rule="evenodd" clip-rule="evenodd" d="M101.387 55.8244C102.144 55.8244 102.776 57.2048 102.776 58.8361C102.776 60.4674 102.144 61.8478 101.387 61.8478C100.629 61.8478 99.998 60.4674 99.998 58.8361C99.998 57.2048 100.629 55.8244 101.387 55.8244Z" fill="black"/>
<path fill-rule="evenodd" clip-rule="evenodd" d="M109.719 47.4184C110.477 47.4184 111.108 48.7988 111.108 50.43C111.108 52.0613 110.477 53.4417 109.719 53.4417C108.962 53.4417 108.331 52.0613 108.331 50.43C108.204 48.7988 108.836 47.4184 109.719 47.4184Z" fill="black"/>
<path fill-rule="evenodd" clip-rule="evenodd" d="M124.492 42.1496C125.25 42.1496 125.881 43.5299 125.881 45.1613C125.881 46.7926 125.25 48.1729 124.492 48.1729C123.735 48.1729 123.103 46.7926 123.103 45.1613C122.976 43.4045 123.608 42.1496 124.492 42.1496Z" fill="black"/>
<path fill-rule="evenodd" clip-rule="evenodd" d="M129.417 49.5522C130.174 49.5522 130.805 50.9325 130.805 52.5639C130.805 54.1952 130.174 55.5755 129.417 55.5755C128.658 55.5755 128.028 54.1952 128.028 52.5639C127.901 50.9325 128.533 49.5522 129.417 49.5522Z" fill="black"/>
<path fill-rule="evenodd" clip-rule="evenodd" d="M118.937 49.1755C119.694 49.1755 120.325 50.5558 120.325 52.1871C120.325 53.8185 119.694 55.1988 118.937 55.1988C118.179 55.1988 117.548 53.8185 117.548 52.1871C117.548 50.5558 118.179 49.1755 118.937 49.1755Z" fill="black"/>
<path fill-rule="evenodd" clip-rule="evenodd" d="M112.371 59.7141C113.129 59.7141 113.76 61.0944 113.76 62.7258C113.76 64.3571 113.129 65.7374 112.371 65.7374C111.614 65.7374 110.982 64.3571 110.982 62.7258C110.982 61.0944 111.614 59.7141 112.371 59.7141Z" fill="black"/>
<path fill-rule="evenodd" clip-rule="evenodd" d="M123.356 60.215C124.113 60.215 124.745 61.5954 124.745 63.2267C124.745 64.8579 124.113 66.2384 123.356 66.2384C122.598 66.2384 121.966 64.8579 121.966 63.2267C121.966 61.5954 122.598 60.215 123.356 60.215Z" fill="black"/>
<path fill-rule="evenodd" clip-rule="evenodd" d="M130.93 63.3511C131.688 63.3511 132.32 64.7314 132.32 66.3628C132.32 67.9941 131.688 69.3744 130.93 69.3744C130.173 69.3744 129.541 67.9941 129.541 66.3628C129.416 64.7314 130.046 63.3511 130.93 63.3511Z" fill="black"/>
<path fill-rule="evenodd" clip-rule="evenodd" d="M116.79 69.6233C117.548 69.6233 118.179 71.0037 118.179 72.635C118.179 74.2662 117.548 75.6467 116.79 75.6467C116.033 75.6467 115.401 74.2662 115.401 72.635C115.401 70.8782 116.033 69.6233 116.79 69.6233Z" fill="black"/>
<path fill-rule="evenodd" clip-rule="evenodd" d="M116.916 80.2867C117.674 80.2867 118.305 81.667 118.305 83.2983C118.305 84.9296 117.674 86.31 116.916 86.31C116.159 86.31 115.527 84.9296 115.527 83.2983C115.527 81.667 116.159 80.2867 116.916 80.2867Z" fill="black"/>
<path fill-rule="evenodd" clip-rule="evenodd" d="M123.735 74.0144C124.492 74.0144 125.124 75.3947 125.124 77.0261C125.124 78.6574 124.492 80.0377 123.735 80.0377C122.977 80.0377 122.346 78.6574 122.346 77.0261C122.22 75.3947 122.851 74.0144 123.735 74.0144Z" fill="black"/>
<path fill-rule="evenodd" clip-rule="evenodd" d="M77.65 31.3622C65.7815 50.054 83.4579 77.9034 100.124 91.5773C77.7762 61.7207 74.4934 52.0612 77.65 31.3622Z" fill="black"/>
<path fill-rule="evenodd" clip-rule="evenodd" d="M7.32306 130.842C6.69177 130.34 6.43925 129.587 6.43925 128.835C6.43925 127.831 7.07054 126.953 7.95436 126.451C8.71192 126.075 9.46947 125.824 10.3533 125.824C11.3634 125.824 12.4997 126.075 13.5098 126.326C14.1411 126.451 15.4037 126.953 16.035 126.953C16.7926 126.953 17.2975 126.702 17.8027 126.201C18.3077 125.699 18.5602 125.072 18.5602 124.444C18.5602 122.814 17.2975 121.935 15.9087 121.433C14.3936 120.806 12.6259 120.555 10.9846 120.555C8.33313 120.555 5.68168 121.057 3.53528 122.688C1.38886 124.319 0.50505 126.702 0.50505 129.337C0.50505 131.47 1.01008 133.476 2.65146 134.857C4.04032 135.986 6.31299 136.738 7.95436 137.24C9.34321 137.617 11.7421 138.369 12.8785 139.121C13.7624 139.748 14.2673 140.627 14.2673 141.756C14.2673 142.885 13.7624 143.764 12.7522 144.391C11.8684 144.893 10.9846 145.143 9.97452 145.143C8.58567 145.143 7.07055 144.641 5.80795 144.139C4.92413 143.764 3.40901 143.262 2.52519 143.262C1.76763 143.262 1.26259 143.512 0.883814 144.139C0.378775 144.766 0 145.52 0 146.272C0 147.401 0.883817 148.28 1.8939 148.782C4.29283 150.161 7.07054 150.538 9.84826 150.538C12.6259 150.538 15.4037 149.911 17.5501 148.155C19.6965 146.397 20.5803 143.889 20.5803 141.129C20.5803 138.494 19.6965 136.361 17.5501 134.857C15.9087 133.728 12.2471 132.599 10.3533 131.845C9.21695 131.72 7.95436 131.344 7.32306 130.842ZM36.2365 129.086C35.3526 128.835 33.7113 128.835 32.8276 128.835H32.1962V123.692C32.1962 122.939 31.9437 122.312 31.4387 121.81C30.9336 121.308 30.3024 121.057 29.671 121.057C28.9135 121.057 28.2821 121.308 27.6509 121.81C27.1458 122.312 26.8933 122.939 26.8933 123.692V128.835H26.2621C24.6206 128.835 22.7267 129.086 22.7267 131.093C22.7267 131.845 22.853 132.724 23.6105 133.1C24.2418 133.476 25.5045 133.476 26.2621 133.476H26.8933V147.526C26.8933 148.28 27.1458 148.907 27.6509 149.409C28.0297 149.911 28.6609 150.161 29.2922 150.161C31.3123 150.161 32.1962 149.283 32.1962 147.276V133.476H34.9739C36.6153 133.476 37.4991 132.849 37.4991 131.093C37.3729 130.215 37.1203 129.462 36.2365 129.086ZM44.1909 130.34C43.6858 129.086 42.8021 128.71 41.5394 128.71C40.7818 128.71 40.1506 128.96 39.6455 129.462C39.1405 130.089 38.888 130.716 38.888 131.469V147.401C38.888 148.155 39.0142 148.782 39.5193 149.409C39.8981 149.911 40.5294 150.286 41.1606 150.286C43.1808 150.286 44.1909 149.409 44.1909 147.276V138.996C44.1909 137.49 44.5697 135.86 45.9585 134.982C46.7161 134.355 47.9787 133.978 48.8624 133.728C49.62 133.476 50.7564 133.1 51.514 132.599C52.019 132.222 52.2715 131.595 52.2715 130.968C52.2715 130.215 52.019 129.587 51.514 128.96C51.0089 128.458 50.5039 128.082 49.7463 128.082C47.9787 128.082 46.5898 129.086 45.4535 130.466L44.6959 131.469L44.1909 130.34ZM74.4932 147.526V131.469C74.4932 130.716 74.2407 129.964 73.7356 129.462C73.2306 128.96 72.5993 128.71 71.8417 128.71C70.5792 128.71 69.8215 129.211 69.4428 130.34L69.064 131.469L68.3064 130.591C66.9177 128.96 65.15 128.208 63.0036 128.208C61.2359 128.208 59.7208 128.71 58.3319 129.713C54.923 132.097 53.4079 135.484 53.4079 139.498C53.4079 141.379 53.9129 143.262 54.6704 145.018C56.3119 148.655 58.9633 150.663 63.0036 150.663C65.0237 150.663 66.7913 150.036 68.1802 148.405L68.9378 147.526L69.3165 148.655C69.8216 149.911 70.8316 150.286 72.0943 150.286C72.7255 150.286 73.2306 150.036 73.7356 149.534C74.2407 148.907 74.4932 148.28 74.4932 147.526ZM69.1903 139.498C69.1903 141.004 68.8115 142.508 67.9277 143.764C66.9177 145.143 65.5288 145.77 63.8873 145.77C62.246 145.77 60.9834 145.143 59.847 143.764C58.9633 142.508 58.5845 141.129 58.5845 139.623C58.5845 138.118 58.9633 136.613 59.7208 135.359C60.7309 133.978 62.1197 133.226 63.7611 133.226C65.4024 133.226 66.7913 133.853 67.8014 135.232C68.9378 136.488 69.1903 137.867 69.1903 139.498ZM109.593 131.093C109.593 130.34 109.467 129.713 108.962 129.211C108.457 128.71 107.699 128.584 107.068 128.584C105.679 128.584 104.922 129.211 104.543 130.466L101.134 141.631H99.9977L96.8411 131.845C96.5886 130.968 96.0836 129.964 95.5786 129.211C95.1998 128.71 94.5685 128.459 93.9371 128.459C93.1796 128.459 92.5484 128.71 92.0433 129.462C91.5383 129.964 91.2857 131.093 91.0332 131.845L87.8767 141.631H86.8666L83.3313 130.466C82.9526 129.211 82.195 128.584 80.9325 128.584C80.1749 128.584 79.5436 128.835 78.9122 129.337C78.4072 129.839 78.1547 130.34 78.1547 131.093C78.1547 131.72 79.0386 133.978 79.291 134.605L83.8364 147.526C84.4678 149.283 85.4778 150.412 87.3716 150.412C89.2655 150.412 90.1494 149.032 90.6544 147.526L93.4321 139.248L94.5685 139.121L97.3462 147.526C97.5987 148.155 97.9774 149.284 98.4826 149.784C98.9876 150.286 99.8713 150.538 100.629 150.538C102.523 150.538 103.659 149.409 104.164 147.653L108.71 134.731C108.962 133.853 109.593 131.845 109.593 131.093ZM135.098 139.498C135.098 135.359 133.709 131.971 130.173 129.713C128.785 128.835 127.269 128.208 125.502 128.208C123.608 128.208 121.841 128.71 120.325 129.964L119.189 130.968V121.559C119.189 120.806 118.937 120.179 118.432 119.677C117.927 119.175 117.295 118.925 116.538 118.925C115.78 118.925 115.149 119.175 114.644 119.677C114.139 120.304 113.886 120.932 113.886 121.685V147.653C113.886 148.405 114.139 149.032 114.644 149.534C115.023 150.036 115.654 150.412 116.285 150.412C117.548 150.412 118.558 149.911 119.063 148.782L119.442 147.653L120.199 148.655C121.462 150.286 123.23 150.914 125.25 150.914C128.153 150.914 130.552 149.659 132.32 147.401C134.34 144.893 135.098 142.383 135.098 139.498ZM129.795 139.498C129.795 141.004 129.416 142.508 128.533 143.764C127.522 145.143 126.259 145.77 124.618 145.77C122.976 145.77 121.588 145.143 120.578 143.764C119.694 142.508 119.315 141.004 119.315 139.498C119.315 137.992 119.694 136.488 120.578 135.232C121.588 133.853 122.976 133.226 124.618 133.226C126.259 133.226 127.649 133.978 128.533 135.232C129.543 136.488 129.795 137.992 129.795 139.498ZM159.972 138.746C159.972 135.86 159.087 133.351 157.067 131.218C155.174 129.086 152.775 128.082 149.87 128.082C146.84 128.082 144.189 129.211 142.042 131.344C139.896 133.602 138.886 136.236 138.886 139.373C138.886 142.508 139.769 145.268 141.916 147.526C144.062 149.784 146.84 150.663 149.87 150.663C152.016 150.663 154.037 150.286 155.931 149.534C157.446 148.907 159.466 147.903 159.466 146.022C159.466 145.395 159.34 144.893 158.835 144.391C158.456 144.014 157.951 143.764 157.446 143.764C157.067 143.764 155.931 144.266 155.552 144.391C154.794 144.766 154.037 145.018 153.28 145.395C152.521 145.645 151.638 145.77 150.754 145.77C149.365 145.77 148.103 145.52 146.84 144.893C145.451 144.139 144.567 143.01 144.567 141.379V140.752H157.319C157.951 140.752 158.835 140.627 159.34 140.25C159.845 140.125 159.972 139.248 159.972 138.746ZM154.668 137.742H144.694V137.115C144.694 135.86 145.324 134.731 146.208 133.853C147.218 132.974 148.229 132.473 149.617 132.473C150.881 132.473 152.016 132.974 153.027 133.853C154.037 134.731 154.668 135.86 154.668 137.115V137.742ZM169.061 130.34C168.556 129.086 167.672 128.71 166.41 128.71C165.653 128.71 165.021 128.96 164.516 129.462C164.011 130.089 163.759 130.716 163.759 131.469V147.401C163.759 148.155 163.885 148.782 164.39 149.409C164.768 149.911 165.4 150.286 166.032 150.286C168.052 150.286 169.061 149.409 169.061 147.276V138.996C169.061 137.49 169.441 135.86 170.83 134.982C171.587 134.355 172.849 133.978 173.734 133.728C174.491 133.476 175.628 133.1 176.385 132.599C176.89 132.222 177.142 131.595 177.142 130.968C177.142 130.215 176.89 129.587 176.385 128.96C175.88 128.458 175.374 128.082 174.617 128.082C172.849 128.082 171.46 129.086 170.325 130.466L169.566 131.469L169.061 130.34ZM196.712 156.935C196.965 158.315 197.722 159.319 199.238 159.319C200.753 159.319 201.51 158.064 202.142 156.935L212.495 133.1C212.748 132.473 213 131.845 213 131.093C213 130.34 212.748 129.713 212.243 129.211C211.738 128.71 210.98 128.459 210.223 128.459C208.834 128.459 207.95 130.089 207.445 131.218L202.899 142.133L198.354 130.466C197.849 129.211 196.965 128.459 195.577 128.459C194.818 128.459 194.313 128.71 193.808 129.086C193.683 129.211 193.556 129.337 193.43 129.462L192.798 130.466L192.294 129.337C192.167 129.086 192.041 128.835 191.789 128.71C191.284 128.208 190.779 127.831 190.02 127.831C188.253 127.831 186.864 128.835 185.727 130.215L184.97 131.218L184.592 130.089C184.087 128.835 183.203 128.459 181.94 128.459C181.183 128.459 180.551 128.71 180.046 129.211C179.541 129.839 179.289 130.466 179.289 131.218V147.151C179.289 147.903 179.415 148.53 179.921 149.157C180.299 149.659 180.93 150.036 181.561 150.036C183.582 150.036 184.592 149.157 184.592 147.026V138.746C184.592 137.24 184.97 135.609 186.359 134.731C187.116 134.103 188.38 133.728 189.263 133.476C190.02 133.226 191.157 132.849 191.914 132.347C192.041 132.222 192.167 132.097 192.294 131.971L193.051 130.842L193.556 132.097C193.683 132.347 193.683 132.599 193.808 132.724L200.375 148.28L197.596 154.928C196.965 155.806 196.839 156.433 196.712 156.935Z" fill="black"/>
<path fill-rule="evenodd" clip-rule="evenodd" d="M85.2249 173.244V160.699C85.2249 159.696 84.8461 159.069 83.7098 159.069C82.5735 159.069 82.1947 159.57 82.1947 160.699V165.466H74.6191V160.573C74.6191 159.57 74.2403 158.943 73.104 158.943C71.9676 158.943 71.5889 159.444 71.5889 160.573V173.119C71.5889 174.123 71.9676 174.75 73.104 174.75C74.2403 174.75 74.6191 174.123 74.6191 173.119V168.101H82.1947V173.244C82.1947 174.248 82.5735 174.75 83.5836 174.75C84.7199 174.875 85.2249 174.373 85.2249 173.244ZM102.522 166.972C102.522 164.839 102.017 162.706 100.502 161.075C98.9872 159.444 96.967 158.817 94.8206 158.817C92.6742 158.817 90.6541 159.444 89.2652 161.075C87.7501 162.706 87.2451 164.839 87.2451 166.972C87.2451 169.105 87.7501 171.111 89.2652 172.742C90.7803 174.373 92.6742 175 94.8206 175C96.967 175 98.9872 174.373 100.502 172.742C102.017 171.111 102.522 169.105 102.522 166.972ZM99.2397 166.972C99.2397 168.226 98.9872 169.48 98.2297 170.609C97.4721 171.738 96.2095 172.365 94.8206 172.365C93.4318 172.365 92.2954 171.865 91.4116 170.736C90.6541 169.607 90.4015 168.351 90.4015 167.097C90.4015 165.843 90.6541 164.462 91.4116 163.459C92.1692 162.204 93.3055 161.702 94.8206 161.702C96.2095 161.702 97.3458 162.204 98.2297 163.459C98.9872 164.337 99.2397 165.591 99.2397 166.972ZM117.547 168.476V160.573C117.547 160.198 117.421 159.696 117.169 159.444C116.916 159.069 116.411 159.069 116.032 159.069C115.653 159.069 115.275 159.194 115.022 159.444C114.77 159.821 114.643 160.198 114.643 160.573V168.476C114.643 169.48 114.391 170.359 113.633 171.111C112.876 171.865 111.992 172.115 110.982 172.115C109.972 172.115 109.088 171.865 108.33 171.111C107.573 170.359 107.32 169.48 107.32 168.476V160.573C107.32 159.57 106.942 158.943 105.805 158.943C104.669 158.943 104.29 159.444 104.29 160.573V168.476C104.29 170.234 104.795 171.99 106.184 173.244C107.573 174.498 109.214 175 111.108 175C113.002 175 114.643 174.498 116.032 173.244C117.042 171.99 117.547 170.359 117.547 168.476ZM123.229 164.337C122.851 164.087 122.724 163.71 122.724 163.208C122.724 162.706 123.103 162.204 123.481 161.954C123.86 161.702 124.365 161.702 124.745 161.702C125.25 161.702 125.88 161.829 126.385 161.954C126.639 162.079 127.396 162.33 127.774 162.33C128.153 162.33 128.532 162.204 128.784 161.954C129.038 161.702 129.163 161.327 129.163 160.95C129.163 160.072 128.406 159.57 127.648 159.319C126.764 158.943 125.88 158.817 124.997 158.817C123.608 158.817 122.093 159.069 120.956 159.946C119.82 160.825 119.315 162.079 119.315 163.585C119.315 164.714 119.568 165.843 120.451 166.595C121.209 167.222 122.471 167.599 123.356 167.849C124.113 168.101 125.375 168.476 126.007 168.853C126.512 169.23 126.764 169.732 126.764 170.234C126.764 170.861 126.512 171.363 126.007 171.613C125.502 171.865 124.997 171.99 124.491 171.99C123.734 171.99 122.976 171.738 122.219 171.488C121.714 171.363 120.956 170.986 120.451 170.986C120.073 170.986 119.82 171.111 119.568 171.488C119.315 171.865 119.062 172.24 119.062 172.617C119.062 173.244 119.568 173.746 120.073 173.996C121.335 174.75 122.851 175 124.365 175C125.88 175 127.269 174.624 128.532 173.746C129.668 172.742 130.173 171.488 130.173 169.982C130.173 168.603 129.668 167.347 128.532 166.595C127.648 165.968 125.754 165.341 124.618 164.964C124.24 164.839 123.481 164.587 123.229 164.337ZM141.031 173.244C141.031 172.24 140.401 171.99 139.517 171.99H135.224V168.226H139.264C139.642 168.226 140.021 168.101 140.274 167.849C140.526 167.599 140.653 167.222 140.653 166.847C140.653 166.47 140.526 166.093 140.274 165.843C140.021 165.591 139.642 165.466 139.264 165.466H135.224V161.828H139.517C140.401 161.828 140.906 161.452 140.906 160.448C140.906 159.444 140.526 159.069 139.517 159.069H133.582C133.204 159.069 132.825 159.194 132.572 159.444C132.32 159.696 132.194 160.072 132.194 160.573V173.119C132.194 173.495 132.32 173.871 132.572 174.248C132.951 174.498 133.33 174.624 133.709 174.624H139.391C140.526 174.624 141.031 174.248 141.031 173.244Z" fill="black"/>
<path d="M83.4197 22.6554L83.42 22.6553C89.6566 19.681 96.1528 18.4358 103.053 18.0618C119.009 17.3131 128.461 20.8127 134.013 25.5932C142.78 33.1999 143.93 44.0105 141.178 54.9494L141.178 54.951C138.919 64.0532 134.901 73.2863 129.752 81.397C123.319 91.3608 117.169 97.3362 110.607 98.5493C104.09 99.754 96.9315 96.2911 88.3753 86.7273L88.3748 86.7268C81.1646 78.6907 75.1374 67.9013 71.7957 57.7068C70.1253 52.6108 69.1314 47.6801 68.9893 43.3296C68.8471 38.9742 69.5597 35.2442 71.2547 32.5059C73.5913 28.8415 77.4226 25.5106 83.4197 22.6554Z" fill="#ED2020" stroke="black"/>
<path d="M106.122 9.82373L57.5693 29.6146V20.4074L81.5004 10.6241L81.8112 10.4971V10.1613V2.00538H89.7757V6.5233V7.2665L90.4641 6.98644L106.31 0.539867L155.052 20.4078V29.6146L106.499 9.82373L106.311 9.7468L106.122 9.82373Z" fill="#5C9F38" stroke="black"/>
<path fill-rule="evenodd" clip-rule="evenodd" d="M111.235 24.7127C111.992 24.7127 112.623 26.093 112.623 27.7243C112.623 29.3556 111.992 30.736 111.235 30.736C110.477 30.736 109.846 29.3556 109.846 27.7243C109.846 26.093 110.477 24.7127 111.235 24.7127Z" fill="black"/>
<path fill-rule="evenodd" clip-rule="evenodd" d="M121.841 28.8528C122.598 28.8528 123.23 30.2331 123.23 31.8643C123.23 33.4957 122.598 34.876 121.841 34.876C121.083 34.876 120.452 33.4957 120.452 31.8643C120.452 30.2331 121.083 28.8528 121.841 28.8528Z" fill="black"/>
<path fill-rule="evenodd" clip-rule="evenodd" d="M129.922 34.6235C130.679 34.6235 131.311 36.0038 131.311 37.6352C131.311 39.2665 130.679 40.6468 129.922 40.6468C129.164 40.6468 128.533 39.2665 128.533 37.6352C128.533 36.0038 129.164 34.6235 129.922 34.6235Z" fill="black"/>
<path fill-rule="evenodd" clip-rule="evenodd" d="M136.234 42.9038C136.992 42.9038 137.623 44.2841 137.623 45.9155C137.623 47.5468 136.992 48.9271 136.234 48.9271C135.476 48.9271 134.845 47.5468 134.845 45.9155C134.719 44.2841 135.476 42.9038 136.234 42.9038Z" fill="black"/>
<path fill-rule="evenodd" clip-rule="evenodd" d="M115.779 39.7672C116.537 39.7672 117.168 41.1475 117.168 42.7788C117.168 44.4101 116.537 45.7905 115.779 45.7905C115.022 45.7905 114.391 44.4101 114.391 42.7788C114.391 41.1475 115.022 39.7672 115.779 39.7672Z" fill="black"/>
<path fill-rule="evenodd" clip-rule="evenodd" d="M102.271 33.3697C103.028 33.3697 103.66 34.75 103.66 36.3813C103.66 38.0127 103.028 39.393 102.271 39.393C101.513 39.393 100.882 38.0127 100.882 36.3813C100.882 34.75 101.513 33.3697 102.271 33.3697Z" fill="black"/>
<path fill-rule="evenodd" clip-rule="evenodd" d="M101.387 55.8244C102.144 55.8244 102.776 57.2048 102.776 58.8361C102.776 60.4674 102.144 61.8478 101.387 61.8478C100.629 61.8478 99.998 60.4674 99.998 58.8361C99.998 57.2048 100.629 55.8244 101.387 55.8244Z" fill="black"/>
<path fill-rule="evenodd" clip-rule="evenodd" d="M109.719 47.4184C110.477 47.4184 111.108 48.7988 111.108 50.43C111.108 52.0613 110.477 53.4417 109.719 53.4417C108.962 53.4417 108.331 52.0613 108.331 50.43C108.204 48.7988 108.836 47.4184 109.719 47.4184Z" fill="black"/>
<path fill-rule="evenodd" clip-rule="evenodd" d="M124.492 42.1496C125.25 42.1496 125.881 43.5299 125.881 45.1613C125.881 46.7926 125.25 48.1729 124.492 48.1729C123.735 48.1729 123.103 46.7926 123.103 45.1613C122.976 43.4045 123.608 42.1496 124.492 42.1496Z" fill="black"/>
<path fill-rule="evenodd" clip-rule="evenodd" d="M129.417 49.5522C130.174 49.5522 130.805 50.9325 130.805 52.5639C130.805 54.1952 130.174 55.5755 129.417 55.5755C128.658 55.5755 128.028 54.1952 128.028 52.5639C127.901 50.9325 128.533 49.5522 129.417 49.5522Z" fill="black"/>
<path fill-rule="evenodd" clip-rule="evenodd" d="M118.937 49.1755C119.694 49.1755 120.325 50.5558 120.325 52.1871C120.325 53.8185 119.694 55.1988 118.937 55.1988C118.179 55.1988 117.548 53.8185 117.548 52.1871C117.548 50.5558 118.179 49.1755 118.937 49.1755Z" fill="black"/>
<path fill-rule="evenodd" clip-rule="evenodd" d="M112.371 59.7141C113.129 59.7141 113.76 61.0944 113.76 62.7258C113.76 64.3571 113.129 65.7374 112.371 65.7374C111.614 65.7374 110.982 64.3571 110.982 62.7258C110.982 61.0944 111.614 59.7141 112.371 59.7141Z" fill="black"/>
<path fill-rule="evenodd" clip-rule="evenodd" d="M123.356 60.215C124.113 60.215 124.745 61.5954 124.745 63.2267C124.745 64.8579 124.113 66.2384 123.356 66.2384C122.598 66.2384 121.966 64.8579 121.966 63.2267C121.966 61.5954 122.598 60.215 123.356 60.215Z" fill="black"/>
<path fill-rule="evenodd" clip-rule="evenodd" d="M130.93 63.3511C131.688 63.3511 132.32 64.7314 132.32 66.3628C132.32 67.9941 131.688 69.3744 130.93 69.3744C130.173 69.3744 129.541 67.9941 129.541 66.3628C129.416 64.7314 130.046 63.3511 130.93 63.3511Z" fill="black"/>
<path fill-rule="evenodd" clip-rule="evenodd" d="M116.79 69.6233C117.548 69.6233 118.179 71.0037 118.179 72.635C118.179 74.2662 117.548 75.6467 116.79 75.6467C116.033 75.6467 115.401 74.2662 115.401 72.635C115.401 70.8782 116.033 69.6233 116.79 69.6233Z" fill="black"/>
<path fill-rule="evenodd" clip-rule="evenodd" d="M116.916 80.2867C117.674 80.2867 118.305 81.667 118.305 83.2983C118.305 84.9296 117.674 86.31 116.916 86.31C116.159 86.31 115.527 84.9296 115.527 83.2983C115.527 81.667 116.159 80.2867 116.916 80.2867Z" fill="black"/>
<path fill-rule="evenodd" clip-rule="evenodd" d="M123.735 74.0144C124.492 74.0144 125.124 75.3947 125.124 77.0261C125.124 78.6574 124.492 80.0377 123.735 80.0377C122.977 80.0377 122.346 78.6574 122.346 77.0261C122.22 75.3947 122.851 74.0144 123.735 74.0144Z" fill="black"/>
<path fill-rule="evenodd" clip-rule="evenodd" d="M77.65 31.3622C65.7815 50.054 83.4579 77.9034 100.124 91.5773C77.7762 61.7207 74.4934 52.0612 77.65 31.3622Z" fill="black"/>
</g>
<defs>
<clipPath id="clip0_226_265">
<rect width="213" height="175" fill="white"/>
</clipPath>
</defs>
</svg>
